<?xml version="1.0" encoding="UTF-8"?>
<svg width="640" height="480" xmlns="http://www.w3.org/2000/svg" xmlns:svg="http://www.w3.org/2000/svg">
 <title>selected marker google</title>
 <g>
  <title>Layer 1</title>
  <path id="svg_2" d="m351.83334,1360.78052c-38.76586,-190.30103 -107.11596,-348.66504 -189.90295,-495.44c-61.40698,-108.87207 -132.54395,-209.36304 -198.36401,-314.93793c-21.97199,-35.24402 -40.93396,-72.47705 -62.04702,-109.05408c-42.21594,-73.13696 -76.44398,-157.935 -74.26899,-267.932c2.125,-107.473 33.20802,-193.68403 78.02998,-264.17203c73.71907,-115.93497 197.20106,-210.98899 362.88402,-235.96897c135.46609,-20.42401 262.4751,14.08203 352.54303,66.74799c73.6001,43.03799 130.59607,100.52701 173.92004,168.28c45.22004,70.716 76.35901,154.26001 78.97101,263.23202c1.33704,55.83002 -7.80499,107.53199 -20.68402,150.41797c-13.03394,43.40906 -33.99597,79.69501 -52.646,118.45404c-36.406,75.659 -82.04895,144.98194 -127.85498,214.34595c-136.43707,206.60596 -264.49615,417.31 -320.5801,706.02704l-0.00001,0z" stroke-miterlimit="10" stroke-width="37" stroke="#0d4456" fill="#337d98" clip-rule="evenodd" fill-rule="evenodd"/>
  <circle fill="#0e3f51" id="svg_4" r="183.332031" cy="225.7791" cx="352.891021" clip-rule="evenodd" fill-rule="evenodd"/>
 </g>
</svg>