<svg width="34" height="27" viewBox="0 0 34 27" fill="none" xmlns="http://www.w3.org/2000/svg">
<g clip-path="url(#clip0_424_803)">
<path d="M5.1001 24.1167C5.1001 25.5139 6.20149 26.6474 7.55903 26.6474H25.5912C26.9487 26.6474 28.0501 25.5139 28.0501 24.1167V9.77654H5.1001V24.1167ZM21.493 13.7834C21.493 13.4354 21.7696 13.1507 22.1077 13.1507H24.1568C24.4949 13.1507 24.7715 13.4354 24.7715 13.7834V15.8922C24.7715 16.2402 24.4949 16.5249 24.1568 16.5249H22.1077C21.7696 16.5249 21.493 16.2402 21.493 15.8922V13.7834ZM21.493 20.5317C21.493 20.1837 21.7696 19.899 22.1077 19.899H24.1568C24.4949 19.899 24.7715 20.1837 24.7715 20.5317V22.6405C24.7715 22.9885 24.4949 23.2732 24.1568 23.2732H22.1077C21.7696 23.2732 21.493 22.9885 21.493 22.6405V20.5317ZM14.9358 13.7834C14.9358 13.4354 15.2124 13.1507 15.5505 13.1507H17.5997C17.9378 13.1507 18.2144 13.4354 18.2144 13.7834V15.8922C18.2144 16.2402 17.9378 16.5249 17.5997 16.5249H15.5505C15.2124 16.5249 14.9358 16.2402 14.9358 15.8922V13.7834ZM14.9358 20.5317C14.9358 20.1837 15.2124 19.899 15.5505 19.899H17.5997C17.9378 19.899 18.2144 20.1837 18.2144 20.5317V22.6405C18.2144 22.9885 17.9378 23.2732 17.5997 23.2732H15.5505C15.2124 23.2732 14.9358 22.9885 14.9358 22.6405V20.5317ZM8.37867 13.7834C8.37867 13.4354 8.6553 13.1507 8.9934 13.1507H11.0425C11.3806 13.1507 11.6572 13.4354 11.6572 13.7834V15.8922C11.6572 16.2402 11.3806 16.5249 11.0425 16.5249H8.9934C8.6553 16.5249 8.37867 16.2402 8.37867 15.8922V13.7834ZM8.37867 20.5317C8.37867 20.1837 8.6553 19.899 8.9934 19.899H11.0425C11.3806 19.899 11.6572 20.1837 11.6572 20.5317V22.6405C11.6572 22.9885 11.3806 23.2732 11.0425 23.2732H8.9934C8.6553 23.2732 8.37867 22.9885 8.37867 22.6405V20.5317ZM25.5912 3.02822H23.1322V0.497594C23.1322 0.0336461 22.7634 -0.345947 22.3126 -0.345947H20.6733C20.2225 -0.345947 19.8537 0.0336461 19.8537 0.497594V3.02822H13.2965V0.497594C13.2965 0.0336461 12.9277 -0.345947 12.4769 -0.345947H10.8376C10.3868 -0.345947 10.018 0.0336461 10.018 0.497594V3.02822H7.55903C6.20149 3.02822 5.1001 4.16172 5.1001 5.55884V8.08946H28.0501V5.55884C28.0501 4.16172 26.9487 3.02822 25.5912 3.02822Z" fill="black"/>
</g>
<defs>
<clipPath id="clip0_424_803">
<rect width="34" height="26.8765" fill="white"/>
</clipPath>
</defs>
</svg>
