<svg width="67" height="67" viewBox="0 0 67 67" fill="none" xmlns="http://www.w3.org/2000/svg">
<g clip-path="url(#clip0_424_788)">
<path d="M64.5642 23.0312H56.8465L54.7015 17.5875C52.4972 11.9906 47.2366 8.375 41.2979 8.375H24.9268C18.9894 8.375 13.7274 11.9906 11.5218 17.5875L9.37682 23.0312H1.66049C0.653731 23.0312 -0.0849024 23.9918 0.160019 24.9824L0.933457 28.123C1.1049 28.8218 1.72365 29.3125 2.43393 29.3125H5.02107C3.28986 30.8475 2.17482 33.0786 2.17482 35.5938V41.875C2.17482 43.9845 2.96889 45.8885 4.23732 47.3619V54.4375C4.23732 56.7498 6.08455 58.625 8.36232 58.625H12.4873C14.7651 58.625 16.6123 56.7498 16.6123 54.4375V50.25H49.6123V54.4375C49.6123 56.7498 51.4596 58.625 53.7373 58.625H57.8623C60.1401 58.625 61.9873 56.7498 61.9873 54.4375V47.3619C63.2558 45.8898 64.0498 43.9858 64.0498 41.875V35.5938C64.0498 33.0786 62.9348 30.8475 61.2049 29.3125H63.792C64.5023 29.3125 65.121 28.8218 65.2925 28.123L66.0659 24.9824C66.3096 23.9918 65.5709 23.0312 64.5642 23.0312ZM19.1814 20.698C20.1212 18.3138 22.3963 16.75 24.9268 16.75H41.2979C43.8283 16.75 46.1035 18.3138 47.0432 20.698L49.6123 27.2188H16.6123L19.1814 20.698ZM12.4873 41.8488C10.0123 41.8488 8.36232 40.1791 8.36232 37.6744C8.36232 35.1698 10.0123 33.5 12.4873 33.5C14.9623 33.5 18.6748 37.257 18.6748 39.7616C18.6748 42.2663 14.9623 41.8488 12.4873 41.8488ZM53.7373 41.8488C51.2623 41.8488 47.5498 42.2663 47.5498 39.7616C47.5498 37.257 51.2623 33.5 53.7373 33.5C56.2123 33.5 57.8623 35.1698 57.8623 37.6744C57.8623 40.1791 56.2123 41.8488 53.7373 41.8488Z" fill="#D7D5D5"/>
</g>
<defs>
<clipPath id="clip0_424_788">
<rect width="66" height="67" fill="white" transform="translate(0.112305)"/>
</clipPath>
</defs>
</svg>
