<svg width="95" height="58" viewBox="0 0 95 58" fill="none" xmlns="http://www.w3.org/2000/svg">
<path d="M82.8374 27.1574C79.0058 27.1574 75.8884 24.0827 75.8884 20.3011C75.8884 16.5196 79.0047 13.4448 82.8374 13.4448C86.67 13.4448 89.7863 16.5196 89.7863 20.3011C89.7863 24.0827 86.6689 27.1574 82.8374 27.1574ZM82.8374 16.5412C80.7354 16.5412 79.0256 18.2282 79.0256 20.3021C79.0256 22.3761 80.7354 24.063 82.8374 24.063C84.9393 24.063 86.6491 22.3761 86.6491 20.3021C86.6491 18.2282 84.9393 16.5412 82.8374 16.5412Z" fill="#B5B5B5"/>
<path d="M13.2717 27.1574C9.4401 27.1574 6.32275 24.0827 6.32275 20.3011C6.32275 16.5196 9.4401 13.4448 13.2717 13.4448C17.1033 13.4448 20.2206 16.5196 20.2206 20.3011C20.2206 24.0827 17.1022 27.1574 13.2717 27.1574ZM13.2717 16.5412C11.1698 16.5412 9.45997 18.2282 9.45997 20.3021C9.45997 22.3761 11.1698 24.063 13.2717 24.063C15.3736 24.063 17.0834 22.3761 17.0834 20.3021C17.0834 18.2282 15.3726 16.5412 13.2717 16.5412Z" fill="#B5B5B5"/>
<path d="M86.462 9.44665L75.1669 7.50584L66.8774 2.7606C64.5673 1.43681 61.9321 0.738281 59.2602 0.738281H18.9532C17.2717 0.738281 15.6654 1.35839 14.4304 2.48408L9.46839 7.00851H5.64098C3.51081 7.00851 1.71214 8.582 1.45698 10.6693L0.695683 16.9055C0.424837 19.1249 1.63162 21.2318 3.698 22.1481L4.52413 22.5144C4.34008 21.8055 4.23133 21.0667 4.23133 20.3022C4.23133 15.3836 8.2867 11.3823 13.2717 11.3823C18.2568 11.3823 22.3122 15.3836 22.3122 20.3022C22.3122 21.6528 21.9974 22.9302 21.4505 24.0786H74.6608C74.1139 22.9302 73.7991 21.6528 73.7991 20.3022C73.7991 15.3836 77.8545 11.3823 82.8395 11.3823C87.8246 11.3823 91.88 15.3836 91.88 20.3022C91.88 21.4464 91.653 22.5371 91.2536 23.5431L91.3362 23.5296C93.3273 23.2139 94.7756 21.5383 94.7756 19.5459V19.2013C94.7756 14.3766 91.2787 10.2741 86.462 9.44665ZM35.0942 9.08964H24.8575C24.1725 9.08964 23.5503 8.77391 23.1529 8.22397C22.7555 7.67402 22.6531 6.992 22.8758 6.35229L23.75 3.83367H35.0942V9.08964ZM51.1589 9.08964H38.2314V3.83367H51.1589V9.08964ZM68.3791 9.08964H54.2961V3.83367H59.2602C61.3799 3.83367 63.4693 4.38878 65.3025 5.43811L71.0352 8.72026C70.1735 8.95757 69.2857 9.08964 68.3791 9.08964Z" fill="black"/>
</svg>
