<svg width="42" height="29" viewBox="0 0 42 29" fill="none" xmlns="http://www.w3.org/2000/svg">
<path d="M34.875 10.3571H33.85L26.8813 1.55487C26.4971 1.06975 26.0098 0.67814 25.4556 0.408999C24.9014 0.139858 24.2943 7.76848e-05 23.6794 0H9.97583C8.29931 0 6.79192 1.03118 6.16923 2.60417L3.1 10.5034C1.33444 10.9656 0.025 12.5716 0.025 14.5V21.75C0.025 22.3222 0.483687 22.7857 1.05 22.7857H4.125C4.125 26.2178 6.87841 29 10.275 29C13.6716 29 16.425 26.2178 16.425 22.7857H24.625C24.625 26.2178 27.3784 29 30.775 29C34.1716 29 36.925 26.2178 36.925 22.7857H40C40.5663 22.7857 41.025 22.3222 41.025 21.75V16.5714C41.025 13.1393 38.2716 10.3571 34.875 10.3571ZM10.275 25.8929C8.57927 25.8929 7.2 24.4992 7.2 22.7857C7.2 21.0723 8.57927 19.6786 10.275 19.6786C11.9707 19.6786 13.35 21.0723 13.35 22.7857C13.35 24.4992 11.9707 25.8929 10.275 25.8929ZM14.8875 10.3571H7.51583L9.97583 4.14286H14.8875V10.3571ZM17.9625 10.3571V4.14286H23.6794L28.5994 10.3571H17.9625ZM30.775 25.8929C29.0793 25.8929 27.7 24.4992 27.7 22.7857C27.7 21.0723 29.0793 19.6786 30.775 19.6786C32.4707 19.6786 33.85 21.0723 33.85 22.7857C33.85 24.4992 32.4707 25.8929 30.775 25.8929Z" fill="black"/>
</svg>
