<svg width="20" height="25" viewBox="0 0 25 27" fill="none" xmlns="http://www.w3.org/2000/svg">
<path d="M24.5129 16.5918L22.2852 15.3151C22.5101 14.111 22.5101 12.8758 22.2852 11.6717L24.5129 10.395C24.7692 10.2497 24.8842 9.94869 24.8005 9.66843C24.2201 7.82083 23.2317 6.14967 21.9401 4.75878C21.7414 4.54599 21.4171 4.49409 21.1661 4.63941L18.9384 5.91613C18.0024 5.11688 16.9251 4.49928 15.759 4.09447V1.54623C15.759 1.25559 15.555 1.00129 15.2674 0.939007C13.3482 0.513434 11.382 0.534194 9.55696 0.939007C9.26935 1.00129 9.0654 1.25559 9.0654 1.54623V4.09966C7.90449 4.50966 6.82724 5.12726 5.88596 5.92132L3.66348 4.6446C3.40724 4.49928 3.08825 4.54599 2.88954 4.76397C1.59789 6.14967 0.60954 7.82082 0.0290815 9.67362C-0.0598176 9.95388 0.0604576 10.2549 0.316696 10.4002L2.5444 11.6769C2.31954 12.881 2.31954 14.1162 2.5444 15.3202L0.316696 16.597C0.0604576 16.7423 -0.0545882 17.0433 0.0290815 17.3235C0.60954 19.1712 1.59789 20.8423 2.88954 22.2332C3.08825 22.446 3.41247 22.4979 3.66348 22.3526L5.89119 21.0759C6.82724 21.8751 7.90449 22.4927 9.07063 22.8975V25.4509C9.07063 25.7416 9.27458 25.9959 9.56219 26.0582C11.4814 26.4837 13.4476 26.463 15.2726 26.0582C15.5603 25.9959 15.7642 25.7416 15.7642 25.4509V22.8975C16.9251 22.4875 18.0024 21.8699 18.9437 21.0759L21.1714 22.3526C21.4276 22.4979 21.7466 22.4512 21.9453 22.2332C23.237 20.8475 24.2253 19.1763 24.8058 17.3235C24.8842 17.0381 24.7692 16.7371 24.5129 16.5918ZM12.4122 17.6453C10.106 17.6453 8.22871 15.7821 8.22871 13.4934C8.22871 11.2046 10.106 9.34147 12.4122 9.34147C14.7183 9.34147 16.5957 11.2046 16.5957 13.4934C16.5957 15.7821 14.7183 17.6453 12.4122 17.6453Z" fill="#1E4A5A"/>
</svg>
