<svg width="47" height="28" viewBox="0 0 47 28" fill="none" xmlns="http://www.w3.org/2000/svg">
<path d="M46.0748 11.1656L36.4083 1.07938C36.0845 0.741604 35.6793 0.469841 35.2214 0.283319C34.7634 0.096798 34.264 7.64591e-05 33.7583 0H3.17402C1.90399 0 0.874023 0.895625 0.874023 2V20C0.874023 21.1044 1.90399 22 3.17402 22H5.47402C5.47402 25.3137 8.56321 28 12.374 28C16.1848 28 19.274 25.3137 19.274 22H28.474C28.474 25.3137 31.5632 28 35.374 28C39.1848 28 42.274 25.3137 42.274 22H44.574C45.8441 22 46.874 21.1044 46.874 20V13.0863C46.874 12.3844 46.5908 11.705 46.0748 11.1656ZM5.47402 10V4H12.374V10H5.47402ZM12.374 25C10.4686 25 8.92402 23.6569 8.92402 22C8.92402 20.3431 10.4686 19 12.374 19C14.2794 19 15.824 20.3431 15.824 22C15.824 23.6569 14.2794 25 12.374 25ZM23.874 10H16.974V4H23.874V10ZM35.374 25C33.4686 25 31.924 23.6569 31.924 22C31.924 20.3431 33.4686 19 35.374 19C37.2794 19 38.824 20.3431 38.824 22C38.824 23.6569 37.2794 25 35.374 25ZM28.474 10V4H33.2192L38.9692 10H28.474Z" fill="black"/>
</svg>
